<svg height='100px' width='100px'  fill="#f7f6f2" xmlns:dc="http://purl.org/dc/elements/1.1/" xmlns:cc="http://creativecommons.org/ns#" xmlns:rdf="http://www.w3.org/1999/02/22-rdf-syntax-ns#" xmlns:svg="http://www.w3.org/2000/svg" xmlns="http://www.w3.org/2000/svg" xmlns:sodipodi="http://sodipodi.sourceforge.net/DTD/sodipodi-0.dtd" xmlns:inkscape="http://www.inkscape.org/namespaces/inkscape" version="1.1" x="0px" y="0px" viewBox="0 0 100 100"><g transform="translate(0,-952.36218)"><path style="text-indent:0;text-transform:none;direction:ltr;block-progression:tb;baseline-shift:baseline;color:#000000;enable-background:accumulate;" d="m 18,972.36218 c -6.0421,0 -11,4.9579 -11,11 l 0,38.00002 c 0,6.0421 4.9579,11 11,11 l 64,0 c 6.0421,0 11,-4.9579 11,-11 l 0,-38.00002 c 0,-6.0421 -4.9579,-11 -11,-11 l -64,0 z m 0,6 64,0 c 0.4919,0 0.9616,0.063 1.4062,0.1875 l -32.4687,30.46872 c -0.3553,0.3337 -1.5197,0.3337 -1.875,0 L 16.5938,978.54968 c 0.4446,-0.1242 0.9143,-0.1875 1.4062,-0.1875 z m -5,5.0625 21.3438,20.03132 -21.25,18.9062 c -0.061,-0.3203 -0.094,-0.6581 -0.094,-1 l 0,-37.93752 z m 74,0 0,37.93752 c 0,0.3419 -0.033,0.6797 -0.094,1 l -21.25,-18.9062 21.3438,-20.03132 z m -48.25,24.15632 6.1875,5.8124 c 2.8659,2.691 7.2591,2.6911 10.125,0 l 6.1875,-5.8124 21.0938,18.75 c -0.1122,0.01 -0.2295,0.031 -0.3438,0.031 l -64,0 c -0.1143,0 -0.2316,-0.024 -0.3438,-0.031 l 21.0938,-18.75 z" fill="#f7f6f2" fill-opacity="1" stroke="none" marker="none" visibility="visible" display="inline" overflow="visible"></path></g></svg>